<svg width="900" height="280" viewBox="0 0 900 280" xmlns="http://www.w3.org/2000/svg">
  <defs>
    <!-- Main dark background gradient -->
    <linearGradient id="bgGrad" x1="0%" y1="0%" x2="100%" y2="100%">
      <stop offset="0%" style="stop-color:#0a0e1a"/>
      <stop offset="40%" style="stop-color:#0d1b35"/>
      <stop offset="100%" style="stop-color:#0f0a1e"/>
    </linearGradient>

    <!-- Cyan glow gradient for accent line -->
    <linearGradient id="lineGrad" x1="0%" y1="0%" x2="100%" y2="0%">
      <stop offset="0%" style="stop-color:#00000000"/>
      <stop offset="30%" style="stop-color:#00d9ff"/>
      <stop offset="70%" style="stop-color:#7c3aed"/>
      <stop offset="100%" style="stop-color:#00000000"/>
    </linearGradient>

    <!-- Glow filter for name -->
    <filter id="glow" x="-20%" y="-20%" width="140%" height="140%">
      <feGaussianBlur stdDeviation="4" result="coloredBlur"/>
      <feMerge>
        <feMergeNode in="coloredBlur"/>
        <feMergeNode in="SourceGraphic"/>
      </feMerge>
    </filter>

    <!-- Soft glow filter for dots -->
    <filter id="dotGlow">
      <feGaussianBlur stdDeviation="3" result="coloredBlur"/>
      <feMerge>
        <feMergeNode in="coloredBlur"/>
        <feMergeNode in="SourceGraphic"/>
      </feMerge>
    </filter>

    <!-- Radial glow behind name -->
    <radialGradient id="nameGlow" cx="50%" cy="50%" r="50%">
      <stop offset="0%" style="stop-color:#00d9ff18"/>
      <stop offset="100%" style="stop-color:#00000000"/>
    </radialGradient>

    <!-- Top edge shimmer -->
    <linearGradient id="topShimmer" x1="0%" y1="0%" x2="100%" y2="0%">
      <stop offset="0%" style="stop-color:#00000000"/>
      <stop offset="25%" style="stop-color:#00d9ff80"/>
      <stop offset="50%" style="stop-color:#ffffff"/>
      <stop offset="75%" style="stop-color:#7c3aed80"/>
      <stop offset="100%" style="stop-color:#00000000"/>
    </linearGradient>

    <linearGradient id="gridFade" x1="0%" y1="0%" x2="0%" y2="100%">
      <stop offset="0%" style="stop-color:#00d9ff08"/>
      <stop offset="100%" style="stop-color:#00000000"/>
    </linearGradient>
  </defs>

  <!-- Background -->
  <rect width="900" height="280" fill="url(#bgGrad)"/>

  <!-- Subtle grid lines -->
  <g opacity="0.06" stroke="#00d9ff" stroke-width="0.5">
    <line x1="0" y1="40" x2="900" y2="40"/>
    <line x1="0" y1="80" x2="900" y2="80"/>
    <line x1="0" y1="120" x2="900" y2="120"/>
    <line x1="0" y1="160" x2="900" y2="160"/>
    <line x1="0" y1="200" x2="900" y2="200"/>
    <line x1="0" y1="240" x2="900" y2="240"/>
    <line x1="100" y1="0" x2="100" y2="280"/>
    <line x1="200" y1="0" x2="200" y2="280"/>
    <line x1="300" y1="0" x2="300" y2="280"/>
    <line x1="400" y1="0" x2="400" y2="280"/>
    <line x1="500" y1="0" x2="500" y2="280"/>
    <line x1="600" y1="0" x2="600" y2="280"/>
    <line x1="700" y1="0" x2="700" y2="280"/>
    <line x1="800" y1="0" x2="800" y2="280"/>
  </g>

  <!-- Ambient glow blobs -->
  <ellipse cx="180" cy="100" rx="160" ry="100" fill="#00d9ff" opacity="0.04"/>
  <ellipse cx="720" cy="180" rx="180" ry="110" fill="#7c3aed" opacity="0.06"/>
  <ellipse cx="450" cy="140" rx="300" ry="150" fill="url(#nameGlow)"/>

  <!-- Top shimmer line -->
  <rect x="0" y="0" width="900" height="2" fill="url(#topShimmer)"/>

  <!-- Corner brackets — top left -->
  <polyline points="30,50 30,30 50,30" fill="none" stroke="#00d9ff" stroke-width="2" opacity="0.7"/>
  <!-- Corner brackets — top right -->
  <polyline points="870,50 870,30 850,30" fill="none" stroke="#00d9ff" stroke-width="2" opacity="0.7"/>
  <!-- Corner brackets — bottom left -->
  <polyline points="30,230 30,250 50,250" fill="none" stroke="#7c3aed" stroke-width="2" opacity="0.7"/>
  <!-- Corner brackets — bottom right -->
  <polyline points="870,230 870,250 850,250" fill="none" stroke="#7c3aed" stroke-width="2" opacity="0.7"/>

  <!-- Floating accent dots -->
  <circle cx="60" cy="140" r="3" fill="#00d9ff" opacity="0.5" filter="url(#dotGlow)"/>
  <circle cx="840" cy="140" r="3" fill="#7c3aed" opacity="0.5" filter="url(#dotGlow)"/>
  <circle cx="120" cy="80" r="1.5" fill="#00d9ff" opacity="0.4"/>
  <circle cx="780" cy="80" r="1.5" fill="#7c3aed" opacity="0.4"/>
  <circle cx="90" cy="200" r="2" fill="#00d9ff" opacity="0.3"/>
  <circle cx="810" cy="200" r="2" fill="#7c3aed" opacity="0.3"/>

  <!-- Main Name -->
  <text x="450" y="135"
    font-family="'Georgia', serif"
    font-size="52"
    font-weight="700"
    fill="#ffffff"
    text-anchor="middle"
    filter="url(#glow)"
    letter-spacing="2">Umer Farooq Shahi</text>

  <!-- Accent divider line -->
  <rect x="150" y="150" width="600" height="1.5" fill="url(#lineGrad)" opacity="0.9"/>

  <!-- Role tag -->
  <text x="450" y="178"
    font-family="'Courier New', monospace"
    font-size="13"
    fill="#00d9ff"
    text-anchor="middle"
    letter-spacing="4"
    opacity="0.95">FULL-STACK ENGINEER</text>

  <!-- Tech badges row -->
  <!-- Next.js -->
  <rect x="196" y="200" width="72" height="22" rx="4" fill="#ffffff0d" stroke="#ffffff22" stroke-width="0.8"/>
  <text x="232" y="215" font-family="'Courier New', monospace" font-size="10" fill="#e2e8f0" text-anchor="middle">Next.js</text>

  <!-- TypeScript -->
  <rect x="278" y="200" width="78" height="22" rx="4" fill="#3178c618" stroke="#3178c660" stroke-width="0.8"/>
  <text x="317" y="215" font-family="'Courier New', monospace" font-size="10" fill="#93c5fd" text-anchor="middle">TypeScript</text>

  <!-- Node.js -->
  <rect x="366" y="200" width="68" height="22" rx="4" fill="#33993318" stroke="#33993360" stroke-width="0.8"/>
  <text x="400" y="215" font-family="'Courier New', monospace" font-size="10" fill="#86efac" text-anchor="middle">Node.js</text>

  <!-- PostgreSQL -->
  <rect x="444" y="200" width="88" height="22" rx="4" fill="#33679118" stroke="#33679160" stroke-width="0.8"/>
  <text x="488" y="215" font-family="'Courier New', monospace" font-size="10" fill="#93c5fd" text-anchor="middle">PostgreSQL</text>

  <!-- MongoDB -->
  <rect x="542" y="200" width="76" height="22" rx="4" fill="#4ea94b18" stroke="#4ea94b60" stroke-width="0.8"/>
  <text x="580" y="215" font-family="'Courier New', monospace" font-size="10" fill="#86efac" text-anchor="middle">MongoDB</text>

  <!-- Docker -->
  <rect x="628" y="200" width="68" height="22" rx="4" fill="#2496ed18" stroke="#2496ed60" stroke-width="0.8"/>
  <text x="662" y="215" font-family="'Courier New', monospace" font-size="10" fill="#7dd3fc" text-anchor="middle">Docker</text>

  <!-- Bottom shimmer line -->
  <rect x="0" y="278" width="900" height="2" fill="url(#topShimmer)" opacity="0.5"/>
</svg>
